<svg xmlns="http://www.w3.org/2000/svg" width="150" height="146" fill="none" viewBox="0 0 150 146"><path fill="#C7B299" fill-rule="evenodd" d="M147.531 112.406C148.253 120.659 126.042 129.342 97.9225 131.803C69.8016 134.263 46.4201 129.568 45.698 121.315C44.9759 113.062 67.1869 104.377 95.3078 101.917C123.428 99.4566 146.809 104.152 147.531 112.406Z" clip-rule="evenodd" opacity=".525"/><path fill="#6F41D8" stroke="#fff" stroke-width="6" d="M58.0919 127.092C87.966 135.097 118.673 117.368 126.678 87.4939C134.682 57.6198 116.954 26.9129 87.0796 18.9082C57.2055 10.9034 26.4987 28.6321 18.4939 58.5062C10.4892 88.3803 28.2178 119.087 58.0919 127.092Z"/><path stroke="#fff" stroke-linecap="round" stroke-width="7" d="M60.1235 71.2137L66.4875 82.2364"/><path stroke="#fff" stroke-linecap="round" stroke-width="7" d="M87.895 64.1612L66.4403 82.2636"/></svg>