<svg id="Layer_1" width="256" height="256" version="1.1" viewBox="0 0 200 200" xml:space="preserve" style="fill:#051b3b"><path id="path10" d="m 58.8,113.86 a 25.91,25.91 0 0 0 15.9,-5.43 L 38.23,72 a 26,26 0 0 0 20.57,41.9 z"/><path id="path12" d="M 167.21,87.85 A 25.81,25.81 0 0 0 161.77,72 l -36.47,36.43 a 26,26 0 0 0 41.91,-20.58 z"/><path id="path14" d="m 185.54,48.19 -16.13,16.13 a 36.73,36.73 0 0 1 -51.74,51.74 L 100,133.73 82.33,116.06 A 36.73,36.73 0 0 1 30.59,64.32 L 22.3,56 14.46,48.16 a 100,100 0 1 0 171.08,0 z"/><path id="path16" d="m 172.35,31 a 100,100 0 0 0 -144.7,0 101.66,101.66 0 0 0 -7,8.19 L 100,118.53 179.37,39.17 A 101.66,101.66 0 0 0 172.35,31 Z M 100,13.08 a 85.9,85.9 0 0 1 61.48,25.47 L 100,100 38.52,38.55 A 85.9,85.9 0 0 1 100,13.08 Z"/></svg>